<svg width="24" height="25" viewBox="0 0 24 25" fill="none" xmlns="http://www.w3.org/2000/svg">
<path d="M6.36501 14.5038C5.37493 13.8875 4.57759 13.0058 4.06357 11.9589C3.54956 10.9121 3.33949 9.74203 3.45722 8.58174C3.57496 7.42146 4.01579 6.31747 4.72962 5.39521C5.44345 4.47295 6.40166 3.76941 7.49536 3.36452C8.58906 2.95963 9.7744 2.86964 10.9167 3.10477C12.059 3.33989 13.1124 3.89071 13.9573 4.69463C14.8022 5.49855 15.4046 6.52334 15.6962 7.65254H16.6781C17.7115 7.65254 18.7026 8.06307 19.4334 8.7938C20.1641 9.52454 20.5746 10.5156 20.5746 11.549C20.5746 12.5825 20.1641 13.5735 19.4334 14.3043M3 15.8871C4.49411 14.3747 6.82528 14.067 8.66163 15.1398L9.22591 15.4694C10.9394 16.4704 13.0606 16.4704 14.7741 15.4694M3 20.663C4.49411 19.1506 6.82528 18.8429 8.66163 19.9157L9.22591 20.2453C10.231 20.8325 11.3763 21.0752 12.4973 20.9736" stroke="currentColor" stroke-linecap="round" stroke-linejoin="round"/>
<path d="M14.7534 20.0055C14.7534 19.6585 15.0347 19.3773 15.3816 19.3773C15.7285 19.3773 16.0098 19.6585 16.0098 20.0055M14.7534 20.0055C14.7534 20.3524 15.0347 20.6336 15.3816 20.6336C15.7285 20.6336 16.0098 20.3524 16.0098 20.0055M14.7534 20.0055L16.0098 20.0055M19.3179 20.0055C19.3179 19.6585 19.5991 19.3773 19.946 19.3773C20.293 19.3773 20.5742 19.6585 20.5742 20.0055M19.3179 20.0055C19.3179 20.3524 19.5991 20.6336 19.946 20.6336C20.293 20.6336 20.5742 20.3524 20.5742 20.0055M19.3179 20.0055L20.5742 20.0055M17.0356 16.3219C17.0356 15.9749 17.3169 15.6937 17.6638 15.6937C18.0107 15.6937 18.292 15.9749 18.292 16.3219M17.0356 16.3219C17.0356 16.6688 17.3169 16.95 17.6638 16.95C18.0107 16.95 18.292 16.6688 18.292 16.3219M17.0356 16.3219L18.292 16.3219" stroke="currentColor" stroke-linecap="round" stroke-linejoin="round"/>
</svg>
