<svg width="24" height="25" viewBox="0 0 24 25" fill="none" xmlns="http://www.w3.org/2000/svg">
<path d="M5.66546 18.9939L5.73506 18.6662M9.86546 18.9939L9.93506 18.6662M7.76546 21.5939L7.83506 21.2662M11.9655 21.5939L12.0351 21.2662M7.34086 6.82328H8.31885C8.60924 5.6986 9.20928 4.67791 10.0508 3.87721C10.8923 3.07651 11.9415 2.52789 13.0793 2.29371C14.217 2.05952 15.3976 2.14915 16.4869 2.55242C17.5762 2.95569 18.5306 3.65642 19.2416 4.57498C19.9525 5.49355 20.3916 6.59313 20.5089 7.74877C20.6261 8.9044 20.4169 10.0698 19.9049 11.1124C19.393 12.1551 18.5988 13.0333 17.6127 13.6471C16.6266 14.261 15.4881 14.586 14.3265 14.5851H7.34086C6.31158 14.5851 5.32446 14.1762 4.59665 13.4484C3.86884 12.7206 3.45996 11.7335 3.45996 10.7042C3.45996 9.67491 3.86884 8.68779 4.59665 7.95997C5.32446 7.23216 6.31158 6.82328 7.34086 6.82328Z" stroke="currentColor" stroke-linecap="round" stroke-linejoin="round"/>
<path d="M19.2563 17.907C19.2563 18.254 18.9751 18.5352 18.6282 18.5352C18.2812 18.5352 18 18.254 18 17.907M19.2563 17.907C19.2563 17.5601 18.9751 17.2789 18.6282 17.2789C18.2812 17.2789 18 17.5601 18 17.907M19.2563 17.907H18M14.6919 17.907C14.6919 18.254 14.4107 18.5352 14.0637 18.5352C13.7168 18.5352 13.4355 18.254 13.4355 17.907M14.6919 17.907C14.6919 17.5601 14.4107 17.2789 14.0637 17.2789C13.7168 17.2789 13.4355 17.5601 13.4355 17.907M14.6919 17.907H13.4355M16.9741 21.5906C16.9741 21.9376 16.6929 22.2188 16.3459 22.2188C15.999 22.2188 15.7178 21.9376 15.7178 21.5906M16.9741 21.5906C16.9741 21.2437 16.6929 20.9625 16.3459 20.9625C15.999 20.9625 15.7178 21.2437 15.7178 21.5906M16.9741 21.5906H15.7178" stroke="currentColor" stroke-linecap="round" stroke-linejoin="round"/>
</svg>
