<svg width="24" height="25" viewBox="0 0 24 25" fill="none" xmlns="http://www.w3.org/2000/svg">
<path d="M5.34808 19.0868L5.51619 18.1995M8.54808 19.0868L8.71619 18.1995M11.7481 19.0868L11.9162 18.1995M6.94808 22.6868L7.11619 21.7995M10.1481 22.6868L10.3162 21.7995M13.3481 22.6868L13.5162 21.7995M7.34086 6.85661H8.31885C8.60924 5.73192 9.20928 4.71124 10.0508 3.91053C10.8923 3.10983 11.9415 2.56122 13.0793 2.32703C14.217 2.09285 15.3976 2.18248 16.4869 2.58575C17.5762 2.98901 18.5306 3.68974 19.2416 4.60831C19.9525 5.52688 20.3916 6.62645 20.5089 7.78209C20.6261 8.93773 20.4169 10.1031 19.9049 11.1458C19.393 12.1884 18.5988 13.0666 17.6127 13.6805C16.6266 14.2943 15.4881 14.6193 14.3265 14.6184H7.34086C6.31158 14.6184 5.32446 14.2095 4.59665 13.4817C3.86884 12.7539 3.45996 11.7668 3.45996 10.7375C3.45996 9.70823 3.86884 8.72111 4.59665 7.9933C5.32446 7.26549 6.31158 6.85661 7.34086 6.85661Z" stroke="currentColor" stroke-linecap="round" stroke-linejoin="round"/>
<path d="M20.2134 17.907C20.2134 18.254 19.9321 18.5352 19.5852 18.5352C19.2383 18.5352 18.957 18.254 18.957 17.907M20.2134 17.907C20.2134 17.5601 19.9321 17.2789 19.5852 17.2789C19.2383 17.2789 18.957 17.5601 18.957 17.907M20.2134 17.907H18.957M15.6489 17.907C15.6489 18.254 15.3677 18.5352 15.0208 18.5352C14.6738 18.5352 14.3926 18.254 14.3926 17.907M15.6489 17.907C15.6489 17.5601 15.3677 17.2789 15.0208 17.2789C14.6738 17.2789 14.3926 17.5601 14.3926 17.907M15.6489 17.907H14.3926M17.9312 21.5906C17.9312 21.9376 17.6499 22.2188 17.303 22.2188C16.956 22.2188 16.6748 21.9376 16.6748 21.5906M17.9312 21.5906C17.9312 21.2437 17.6499 20.9625 17.303 20.9625C16.956 20.9625 16.6748 21.2437 16.6748 21.5906M17.9312 21.5906H16.6748" stroke="currentColor" stroke-linecap="round" stroke-linejoin="round"/>
</svg>
