<svg width="24" height="25" viewBox="0 0 24 25" fill="none" xmlns="http://www.w3.org/2000/svg">
<path d="M7.34086 6.80174H8.31885C8.60924 5.67705 9.20928 4.65637 10.0508 3.85566C10.8923 3.05496 11.9415 2.50635 13.0793 2.27216C14.217 2.03798 15.3976 2.12761 16.4869 2.53087C17.5762 2.93414 18.5306 3.63487 19.2416 4.55344C19.9525 5.47201 20.3916 6.57158 20.5089 7.72722C20.6261 8.88286 20.4169 10.0482 19.9049 11.0909C19.393 12.1336 18.5988 13.0117 17.6127 13.6256C16.6266 14.2395 15.4881 14.5644 14.3265 14.5635H7.34086C6.31158 14.5635 5.32446 14.1547 4.59665 13.4269C3.86884 12.699 3.45996 11.7119 3.45996 10.6826C3.45996 9.65336 3.86884 8.66624 4.59665 7.93843C5.32446 7.21062 6.31158 6.80174 7.34086 6.80174Z" stroke="currentColor" stroke-linecap="round" stroke-linejoin="round"/>
<path d="M4.48584 17.907C4.48584 17.5601 4.76708 17.2789 5.11401 17.2789C5.46094 17.2789 5.74219 17.5601 5.74219 17.907M4.48584 17.907C4.48584 18.254 4.76708 18.5352 5.11401 18.5352C5.46094 18.5352 5.74219 18.254 5.74219 17.907M4.48584 17.907L5.74219 17.907M6.76807 21.5906C6.76807 21.2437 7.04931 20.9625 7.39624 20.9625C7.74317 20.9625 8.02441 21.2437 8.02441 21.5906M6.76807 21.5906C6.76807 21.9376 7.04931 22.2188 7.39624 22.2188C7.74317 22.2188 8.02441 21.9376 8.02441 21.5906M6.76807 21.5906L8.02441 21.5906M11.3325 21.5906C11.3325 21.2437 11.6138 20.9625 11.9607 20.9625C12.3076 20.9625 12.5889 21.2437 12.5889 21.5906M11.3325 21.5906C11.3325 21.9376 11.6138 22.2188 11.9607 22.2188C12.3076 22.2188 12.5889 21.9376 12.5889 21.5906M11.3325 21.5906L12.5889 21.5906M15.897 21.5906C15.897 21.2437 16.1782 20.9625 16.5251 20.9625C16.8721 20.9625 17.1533 21.2437 17.1533 21.5906M15.897 21.5906C15.897 21.9376 16.1782 22.2188 16.5251 22.2188C16.8721 22.2188 17.1533 21.9376 17.1533 21.5906M15.897 21.5906L17.1533 21.5906M9.05029 17.907C9.05029 17.5601 9.33154 17.2789 9.67847 17.2789C10.0254 17.2789 10.3066 17.5601 10.3066 17.907M9.05029 17.907C9.05029 18.254 9.33154 18.5352 9.67847 18.5352C10.0254 18.5352 10.3066 18.254 10.3066 17.907M9.05029 17.907L10.3066 17.907M13.6147 17.907C13.6147 17.5601 13.896 17.2789 14.2429 17.2789C14.5899 17.2789 14.8711 17.5601 14.8711 17.907M13.6147 17.907C13.6147 18.254 13.896 18.5352 14.2429 18.5352C14.5899 18.5352 14.8711 18.254 14.8711 17.907M13.6147 17.907L14.8711 17.907M18.1792 17.907C18.1792 17.5601 18.4604 17.2789 18.8074 17.2789C19.1543 17.2789 19.4355 17.5601 19.4355 17.907C19.4355 17.9563 19.4299 18.0041 19.4192 18.0501M18.1792 17.907C18.1792 18.254 18.4604 18.5352 18.8074 18.5352C19.1051 18.5352 19.3544 18.3281 19.4192 18.0501M18.1792 17.907L19.4192 18.0501" stroke="currentColor" stroke-linecap="round" stroke-linejoin="round"/>
</svg>
