<svg width="24" height="25" viewBox="0 0 24 25" fill="none" xmlns="http://www.w3.org/2000/svg">
<path d="M7.34087 6.80174H8.31886C8.60925 5.67705 9.20929 4.65637 10.0508 3.85566C10.8923 3.05496 11.9415 2.50635 13.0793 2.27216C14.217 2.03798 15.3976 2.12761 16.4869 2.53087C17.5762 2.93414 18.5306 3.63487 19.2416 4.55344C19.9525 5.47201 20.3916 6.57158 20.5089 7.72722C20.6261 8.88286 20.4169 10.0482 19.905 11.0909C19.393 12.1336 18.5988 13.0117 17.6127 13.6256C16.6266 14.2395 15.4881 14.5644 14.3265 14.5635H7.34087C6.31159 14.5635 5.32447 14.1547 4.59665 13.4269C3.86884 12.699 3.45996 11.7119 3.45996 10.6826C3.45996 9.65336 3.86884 8.66624 4.59665 7.93843C5.32447 7.21062 6.31159 6.80174 7.34087 6.80174Z" stroke="currentColor" stroke-linecap="round" stroke-linejoin="round"/>
<path d="M2.24072 18.407C2.24072 18.0601 2.52197 17.7789 2.8689 17.7789C3.21583 17.7789 3.49707 18.0601 3.49707 18.407M2.24072 18.407C2.24072 18.754 2.52197 19.0352 2.8689 19.0352C3.21583 19.0352 3.49707 18.754 3.49707 18.407M2.24072 18.407L3.49707 18.407M4.52295 22.0906C4.52295 21.7437 4.80419 21.4624 5.15112 21.4624C5.49805 21.4624 5.7793 21.7437 5.7793 22.0906M4.52295 22.0906C4.52295 22.4376 4.80419 22.7188 5.15112 22.7188C5.49805 22.7188 5.7793 22.4376 5.7793 22.0906M4.52295 22.0906L5.7793 22.0906M9.0874 22.0906C9.0874 21.7437 9.36865 21.4624 9.71558 21.4624C10.0625 21.4624 10.3438 21.7437 10.3438 22.0906M9.0874 22.0906C9.0874 22.4376 9.36865 22.7188 9.71558 22.7188C10.0625 22.7188 10.3438 22.4376 10.3438 22.0906M9.0874 22.0906L10.3438 22.0906M13.6519 22.0906C13.6519 21.7437 13.9331 21.4624 14.28 21.4624C14.627 21.4624 14.9082 21.7437 14.9082 22.0906M13.6519 22.0906C13.6519 22.4376 13.9331 22.7188 14.28 22.7188C14.627 22.7188 14.9082 22.4376 14.9082 22.0906M13.6519 22.0906L14.9082 22.0906M18.2163 22.0906C18.2163 21.7437 18.4976 21.4624 18.8445 21.4624C19.1914 21.4624 19.4727 21.7437 19.4727 22.0906C19.4727 22.1278 19.4694 22.1643 19.4632 22.1997M18.2163 22.0906C18.2163 22.4376 18.4976 22.7188 18.8445 22.7188C19.1542 22.7188 19.4116 22.4946 19.4632 22.1997M18.2163 22.0906L19.4632 22.1997M6.80518 18.407C6.80518 18.0601 7.08642 17.7789 7.43335 17.7789C7.78028 17.7789 8.06152 18.0601 8.06152 18.407M6.80518 18.407C6.80518 18.754 7.08642 19.0352 7.43335 19.0352C7.78028 19.0352 8.06152 18.754 8.06152 18.407M6.80518 18.407L8.06152 18.407M11.3696 18.407C11.3696 18.0601 11.6509 17.7789 11.9978 17.7789C12.3447 17.7789 12.626 18.0601 12.626 18.407M11.3696 18.407C11.3696 18.754 11.6509 19.0352 11.9978 19.0352C12.3447 19.0352 12.626 18.754 12.626 18.407M11.3696 18.407L12.626 18.407M15.9341 18.407C15.9341 18.0601 16.2153 17.7789 16.5623 17.7789C16.9092 17.7789 17.1904 18.0601 17.1904 18.407C17.1904 18.4562 17.1848 18.5041 17.1741 18.5501M15.9341 18.407C15.9341 18.754 16.2153 19.0352 16.5623 19.0352C16.86 19.0352 17.1093 18.8281 17.1741 18.5501M15.9341 18.407L17.1741 18.5501M21.7549 18.407C21.7549 18.0601 21.4736 17.7789 21.1267 17.7789C20.7798 17.7789 20.4985 18.0601 20.4985 18.407C20.4985 18.4562 20.5042 18.5041 20.5149 18.5501M21.7549 18.407C21.7549 18.754 21.4736 19.0352 21.1267 19.0352C20.829 19.0352 20.5796 18.8281 20.5149 18.5501M21.7549 18.407L20.5149 18.5501" stroke="currentColor" stroke-linecap="round" stroke-linejoin="round"/>
</svg>
