<svg width="24" height="24" viewBox="0 0 24 24" fill="none" xmlns="http://www.w3.org/2000/svg">
<path d="M11.5 5.56511V15.5M11.5 15.5V18.5M11.5 15.5C11.9657 15.5 12.3819 15.7123 12.657 16.0453M11.5 15.5C11.1014 15.5 10.739 15.6555 10.4704 15.9092M10 17C10.8333 17 12.6 17 13 17M10 17C10 17.4298 10.1808 17.8173 10.4704 18.0908M10 17C10 16.5702 10.1808 16.1827 10.4704 15.9092M13 17C13 16.6373 12.8713 16.3047 12.657 16.0453M13 17C13 17.4298 12.8192 17.8173 12.5296 18.0908M11.5 18.5C11.1014 18.5 10.739 18.3445 10.4704 18.0908M11.5 18.5C11.8986 18.5 12.261 18.3445 12.5296 18.0908M12.657 16.0453L10.4704 18.0908M10.4704 15.9092L12.5296 18.0908M9 5C9 3.61929 10.1193 2.5 11.5 2.5C12.8807 2.5 14 3.61929 14 5V13.2578C15.206 14.065 16 15.4398 16 17C16 19.4853 13.9853 21.5 11.5 21.5C9.01472 21.5 7 19.4853 7 17C7 15.4398 7.79401 14.065 9 13.2578V5Z" stroke="currentColor" stroke-linecap="round" stroke-linejoin="round"/>
</svg>
