<svg width="24" height="24" viewBox="0 0 24 24" fill="none" xmlns="http://www.w3.org/2000/svg">
<path d="M12.5 13.6509V15.5M12.5 15.5V18.5M12.5 15.5C12.9153 15.5 13.2912 15.6688 13.5628 15.9415M12.5 15.5C12.1496 15.5 11.8272 15.6202 11.5718 15.8216M11 17C11.8333 17 13.6 17 14 17M11 17C11 17.3898 11.1487 17.7449 11.3925 18.0116M11 17C11 16.522 11.2236 16.0963 11.5718 15.8216M14 17C14 16.5869 13.833 16.2128 13.5628 15.9415M14 17C14 17.4131 13.833 17.7872 13.5628 18.0585M12.5 18.5C12.0614 18.5 11.6667 18.3117 11.3925 18.0116M12.5 18.5C12.9153 18.5 13.2912 18.3312 13.5628 18.0585M13.5628 15.9415L11.3925 18.0116M11.5718 15.8216L13.5628 18.0585M10 5C10 3.61929 11.1193 2.5 12.5 2.5C13.8807 2.5 15 3.61929 15 5V13.2578C16.206 14.065 17 15.4398 17 17C17 19.4853 14.9853 21.5 12.5 21.5C10.0147 21.5 8 19.4853 8 17C8 15.4398 8.79401 14.065 10 13.2578V5Z" stroke="currentColor" stroke-linecap="round" stroke-linejoin="round"/>
</svg>
