<svg viewBox="0 0 108 108" fill="none" xmlns="http://www.w3.org/2000/svg">
<path d="M37.0021 74.4545V79.3636M72.6588 74.4545V79.3636M37.0021 94.0909V99M72.6321 94.0909V99M54.8171 74.4545L50.5847 84.2579L59.2641 88.3145L54.8171 99M86 84.2727V89.1818M22 84.2727V89.1818M38.4826 28.9066C32.6654 28.9066 27.1977 29.2988 22.7917 33.7797C19.7236 36.8998 18 41.1316 18 45.5442C18 54.6062 25.4492 62.1818 34.3599 62.1818H63.8077C79.0906 62.1934 91.4122 48.3372 89.8693 32.8742C88.8709 22.8685 82.1888 14.0888 72.9147 10.5972C58.703 5.24676 42.3082 13.8387 38.4826 28.9066Z" stroke="currentColor" stroke-linecap="round" stroke-linejoin="round"/>
</svg>
