<svg viewBox="0 0 24 24" fill="none" xmlns="http://www.w3.org/2000/svg">
<path d="M15.1419 2.47293L8.85811 2.47293C5.21201 2.47293 4.93079 6.39879 6.8993 8.15177C10.8934 11.7177 10.8934 12.2823 6.8993 15.8482C4.93079 17.6012 5.212 21.5271 8.85811 21.5271L15.1419 21.5271C18.788 21.5271 19.0692 17.6012 17.1007 15.8482C13.1066 12.2823 13.1066 11.7177 17.1007 8.15177C19.0692 6.39879 18.788 2.47293 15.1419 2.47293Z" stroke="currentColor"  stroke-linecap="round" stroke-linejoin="round"/>
<path d="M14.6246 5.01367L9.37518 5.01367C8.83615 5.01367 8.52704 5.62096 8.84804 6.04932L11.4423 9.19709C11.7028 9.54473 12.2277 9.54763 12.4921 9.20288L15.1473 6.05511C15.4752 5.62766 15.167 5.01367 14.6246 5.01367Z" fill="currentColor" stroke="currentColor" stroke-linecap="round" stroke-linejoin="round"/>
<path d="M12.4363 16.3544L13.9374 17.7049C14.3655 18.09 14.0908 18.7959 13.5129 18.7959L10.4873 18.7959C9.90693 18.7959 9.6335 18.0851 10.0663 17.7017L11.5909 16.3512C11.832 16.1375 12.1968 16.1389 12.4363 16.3544Z" fill="currentColor" stroke="currentColor"  stroke-linecap="round" stroke-linejoin="round"/>
</svg>
