<svg width="24" height="24" viewBox="0 0 24 24" fill="none" xmlns="http://www.w3.org/2000/svg">
<path d="M7.34086 6.65708H8.31885C8.60924 5.5324 9.20928 4.51171 10.0508 3.71101C10.8923 2.91031 11.9415 2.36169 13.0793 2.12751C14.217 1.89332 15.3976 1.98296 16.4869 2.38622C17.5762 2.78949 18.5306 3.49022 19.2416 4.40879C19.9525 5.32735 20.3916 6.42693 20.5089 7.58257C20.6261 8.73821 20.4169 9.90357 19.9049 10.9462C19.393 11.9889 18.5988 12.8671 17.6127 13.4809C16.6266 14.0948 15.4881 14.4198 14.3265 14.4189H7.34086C6.31158 14.4189 5.32446 14.01 4.59665 13.2822C3.86884 12.5544 3.45996 11.5673 3.45996 10.538C3.45996 9.50871 3.86884 8.52159 4.59665 7.79378C5.32446 7.06597 6.31158 6.65708 7.34086 6.65708Z" stroke="currentColor" stroke-linecap="round" stroke-linejoin="round"/>
<path d="M19.9999 21.8723H19.1C18.934 21.4166 19.0197 20.8497 19.0197 20.3728C19.0197 19.895 18.8429 19.7186 18.4411 19.7186H18.1358V21.8723H17.252V16.6094H18.5858C19.5017 16.6094 19.8954 17.0578 19.8954 17.8516V18.2559C19.8954 18.7851 19.7106 19.1306 19.3169 19.2997C19.7589 19.4687 19.9035 19.8583 19.9035 20.3949C19.9035 20.8495 19.8033 21.4471 19.9999 21.8723ZM18.5617 17.4033H18.1358V18.9836H18.4813C18.8107 18.9836 19.0116 18.8513 19.0116 18.4397V17.9325C19.0116 17.565 18.875 17.4033 18.5617 17.4033Z" fill="black"/>
<path d="M14.7169 17.8516V20.63C14.7169 20.9976 14.8936 21.1372 15.1748 21.1372C15.4561 21.1372 15.6328 20.9976 15.6328 20.63V17.8516C15.6328 17.4841 15.4561 17.3444 15.1748 17.3444C14.8936 17.3444 14.7169 17.4841 14.7169 17.8516ZM13.833 20.5786V17.903C13.833 17.0798 14.3071 16.6094 15.1748 16.6094C16.0426 16.6094 16.5166 17.0798 16.5166 17.903V20.5786C16.5166 21.4018 16.0426 21.8723 15.1748 21.8723C14.3071 21.8723 13.833 21.4018 13.833 20.5786Z" fill="black"/>
<path d="M13.2606 21.8723H12.3607C12.1947 21.4166 12.2804 20.8497 12.2804 20.3728C12.2804 19.895 12.1036 19.7186 11.7019 19.7186H11.3965V21.8723H10.5127V16.6094H11.8465C12.7625 16.6094 13.1562 17.0578 13.1562 17.8516V18.2559C13.1562 18.7851 12.9714 19.1306 12.5776 19.2997C13.0196 19.4687 13.1642 19.8583 13.1642 20.3949C13.1642 20.8495 13.064 21.4471 13.2606 21.8723ZM11.8224 17.4033H11.3965V18.9836H11.742C12.0715 18.9836 12.2723 18.8513 12.2723 18.4397V17.9325C12.2723 17.565 12.1357 17.4033 11.8224 17.4033Z" fill="black"/>
<path d="M9.86705 21.8723H8.96715C8.80114 21.4166 8.8868 20.8497 8.8868 20.3728C8.8868 19.895 8.71004 19.7186 8.3083 19.7186H8.00297V21.8723H7.11914V16.6094H8.45292C9.36889 16.6094 9.7626 17.0578 9.7626 17.8516V18.2559C9.7626 18.7851 9.5778 19.1306 9.18409 19.2997C9.62601 19.4687 9.77063 19.8583 9.77063 20.3949C9.77063 20.8495 9.67042 21.4471 9.86705 21.8723ZM8.42882 17.4033H8.00297V18.9836H8.34847C8.6779 18.9836 8.87877 18.8513 8.87877 18.4397V17.9325C8.87877 17.565 8.74218 17.4033 8.42882 17.4033Z" fill="black"/>
<path d="M4.88383 17.4033V18.8366H6.09709V19.5716H4.88383V21.0784H6.41045V21.8723H4V16.6094H6.41045V17.4033H4.88383Z" fill="black"/>
</svg>
