<svg width="24" height="25" viewBox="0 0 24 25" fill="none" xmlns="http://www.w3.org/2000/svg">
<path d="M7.16244 7.79904C7.34481 7.06347 7.67676 6.37098 8.14035 5.76688C8.76471 4.95326 9.60283 4.33259 10.5594 3.9754C11.516 3.6182 12.5528 3.53881 13.552 3.74624C14.5511 3.95367 15.4725 4.4396 16.2115 5.14882C16.9505 5.85804 17.4775 6.76211 17.7325 7.7583H18.5913C19.4952 7.7583 20.3621 8.12046 21.0013 8.76512C21.6404 9.40978 21.9995 10.2841 21.9995 11.1958C21.9995 12.1075 21.6404 12.9818 21.0013 13.6265C20.5438 14.0879 19.9697 14.4046 19.3488 14.5473M15.8269 12.6093H14.7992C14.494 11.4274 13.8634 10.3548 12.9792 9.5134C12.0949 8.67198 10.9923 8.09548 9.79678 7.84938C8.60121 7.60329 7.36059 7.69748 6.21587 8.12125C5.07116 8.54502 4.06827 9.28138 3.32115 10.2467C2.57402 11.2119 2.11263 12.3674 1.9894 13.5818C1.86617 14.7962 2.08604 16.0208 2.62403 17.1165C3.16202 18.2122 3.99655 19.135 5.0328 19.7801C6.06905 20.4252 7.26547 20.7666 8.4861 20.7657H15.8269C16.9085 20.7657 17.9458 20.3361 18.7106 19.5712C19.4754 18.8064 19.9051 17.7691 19.9051 16.6875C19.9051 15.6059 19.4754 14.5686 18.7106 13.8038C17.9458 13.0389 16.9085 12.6093 15.8269 12.6093Z" stroke="currentColor" stroke-linecap="round" stroke-linejoin="round"/>
</svg>
