<svg width="24" height="25" viewBox="0 0 24 25" fill="none" xmlns="http://www.w3.org/2000/svg">
<path d="M5.66546 19.0272L5.73506 18.6995M9.86546 19.0272L9.93506 18.6995M14.0655 19.0272L14.1351 18.6995M18.2655 19.0272L18.3351 18.6995M7.76546 21.6272L7.83506 21.2995M11.9655 21.6272L12.0351 21.2995M16.1655 21.6272L16.2351 21.2995M7.34086 6.85661H8.31885C8.60924 5.73192 9.20928 4.71124 10.0508 3.91053C10.8923 3.10983 11.9415 2.56122 13.0793 2.32703C14.217 2.09285 15.3976 2.18248 16.4869 2.58575C17.5762 2.98901 18.5306 3.68974 19.2416 4.60831C19.9525 5.52688 20.3916 6.62645 20.5089 7.78209C20.6261 8.93773 20.4169 10.1031 19.9049 11.1458C19.393 12.1884 18.5988 13.0666 17.6127 13.6805C16.6266 14.2943 15.4881 14.6193 14.3265 14.6184H7.34086C6.31158 14.6184 5.32446 14.2095 4.59665 13.4817C3.86884 12.7539 3.45996 11.7668 3.45996 10.7375C3.45996 9.70823 3.86884 8.72111 4.59665 7.9933C5.32446 7.26549 6.31158 6.85661 7.34086 6.85661Z" stroke="currentColor" stroke-linecap="round" stroke-linejoin="round"/>
</svg>
