<svg width="24" height="25" viewBox="0 0 24 25" fill="none" xmlns="http://www.w3.org/2000/svg">
<path d="M3.58894 19.3133L3.65854 18.9857M7.78894 19.3133L7.85854 18.9857M11.989 19.3133L12.0586 18.9857M16.189 19.3133L16.2586 18.9857M5.68894 21.9133L5.75854 21.5857M9.88894 21.9133L9.95854 21.5857M14.089 21.9133L14.1586 21.5857M20.342 19.3133L20.4116 18.9857M18.242 21.9133L18.3116 21.5857M7.34086 7.14274H8.31885C8.60924 6.01805 9.20928 4.99737 10.0508 4.19667C10.8923 3.39596 11.9415 2.84735 13.0793 2.61316C14.217 2.37898 15.3976 2.46861 16.4869 2.87188C17.5762 3.27514 18.5306 3.97587 19.2416 4.89444C19.9525 5.81301 20.3916 6.91259 20.5089 8.06822C20.6261 9.22386 20.4169 10.3892 19.9049 11.4319C19.393 12.4746 18.5988 13.3527 17.6127 13.9666C16.6266 14.5805 15.4881 14.9054 14.3265 14.9046H7.34086C6.31158 14.9046 5.32446 14.4957 4.59665 13.7679C3.86884 13.04 3.45996 12.0529 3.45996 11.0236C3.45996 9.99437 3.86884 9.00724 4.59665 8.27943C5.32446 7.55162 6.31158 7.14274 7.34086 7.14274Z" stroke="currentColor" stroke-linecap="round" stroke-linejoin="round"/>
</svg>
