<svg width="24" height="25" viewBox="0 0 24 25" fill="none" xmlns="http://www.w3.org/2000/svg">
<path d="M3.58894 18.9939L3.65854 18.6662M7.78894 18.9939L7.85854 18.6662M11.989 18.9939L12.0586 18.6662M5.68894 21.5939L5.75854 21.2662M9.88894 21.5939L9.95854 21.2662M14.089 21.5939L14.1586 21.2662M7.34086 6.82328H8.31885C8.60924 5.6986 9.20928 4.67791 10.0508 3.87721C10.8923 3.07651 11.9415 2.52789 13.0793 2.29371C14.217 2.05952 15.3976 2.14915 16.4869 2.55242C17.5762 2.95569 18.5306 3.65642 19.2416 4.57498C19.9525 5.49355 20.3916 6.59313 20.5089 7.74877C20.6261 8.9044 20.4169 10.0698 19.9049 11.1124C19.393 12.1551 18.5988 13.0333 17.6127 13.6471C16.6266 14.261 15.4881 14.586 14.3265 14.5851H7.34086C6.31158 14.5851 5.32446 14.1762 4.59665 13.4484C3.86884 12.7206 3.45996 11.7335 3.45996 10.7042C3.45996 9.67491 3.86884 8.68779 4.59665 7.95997C5.32446 7.23216 6.31158 6.82328 7.34086 6.82328Z" stroke="currentColor" stroke-linecap="round" stroke-linejoin="round"/>
<path d="M21.2183 17.907C21.2183 18.254 20.937 18.5352 20.5901 18.5352C20.2432 18.5352 19.9619 18.254 19.9619 17.907M21.2183 17.907C21.2183 17.5601 20.937 17.2789 20.5901 17.2789C20.2432 17.2789 19.9619 17.5601 19.9619 17.907M21.2183 17.907H19.9619M16.6538 17.907C16.6538 18.254 16.3726 18.5352 16.0256 18.5352C15.6787 18.5352 15.3975 18.254 15.3975 17.907M16.6538 17.907C16.6538 17.5601 16.3726 17.2789 16.0256 17.2789C15.6787 17.2789 15.3975 17.5601 15.3975 17.907M16.6538 17.907H15.3975M18.936 21.5906C18.936 21.9376 18.6548 22.2188 18.3079 22.2188C17.9609 22.2188 17.6797 21.9376 17.6797 21.5906M18.936 21.5906C18.936 21.2437 18.6548 20.9625 18.3079 20.9625C17.9609 20.9625 17.6797 21.2437 17.6797 21.5906M18.936 21.5906H17.6797" stroke="currentColor" stroke-linecap="round" stroke-linejoin="round"/>
</svg>
