<svg width="24" height="25" viewBox="0 0 24 25" fill="none" xmlns="http://www.w3.org/2000/svg">
<path d="M5.18214 19.1228L5.35024 18.2355M9.38214 19.1228L9.55024 18.2355M7.28214 22.7228L7.45024 21.8355M11.4822 22.7228L11.6503 21.8355M7.34086 6.89256H8.31885C8.60924 5.76787 9.20928 4.74719 10.0508 3.94648C10.8923 3.14578 11.9415 2.59717 13.0793 2.36298C14.217 2.1288 15.3976 2.21843 16.4869 2.6217C17.5762 3.02496 18.5306 3.72569 19.2416 4.64426C19.9525 5.56283 20.3916 6.6624 20.5089 7.81804C20.6261 8.97368 20.4169 10.139 19.9049 11.1817C19.393 12.2244 18.5988 13.1025 17.6127 13.7164C16.6266 14.3303 15.4881 14.6552 14.3265 14.6544H7.34086C6.31158 14.6544 5.32446 14.2455 4.59665 13.5177C3.86884 12.7899 3.45996 11.8027 3.45996 10.7735C3.45996 9.74418 3.86884 8.75706 4.59665 8.02925C5.32446 7.30144 6.31158 6.89256 7.34086 6.89256Z" stroke="currentColor" stroke-linecap="round" stroke-linejoin="round"/>
<path d="M19.0796 17.907C19.0796 18.254 18.7983 18.5352 18.4514 18.5352C18.1045 18.5352 17.8232 18.254 17.8232 17.907M19.0796 17.907C19.0796 17.5601 18.7983 17.2789 18.4514 17.2789C18.1045 17.2789 17.8232 17.5601 17.8232 17.907M19.0796 17.907H17.8232M14.5151 17.907C14.5151 18.254 14.2339 18.5352 13.887 18.5352C13.54 18.5352 13.2588 18.254 13.2588 17.907M14.5151 17.907C14.5151 17.5601 14.2339 17.2789 13.887 17.2789C13.54 17.2789 13.2588 17.5601 13.2588 17.907M14.5151 17.907H13.2588M16.7974 21.5906C16.7974 21.9376 16.5161 22.2188 16.1692 22.2188C15.8223 22.2188 15.541 21.9376 15.541 21.5906M16.7974 21.5906C16.7974 21.2437 16.5161 20.9625 16.1692 20.9625C15.8223 20.9625 15.541 21.2437 15.541 21.5906M16.7974 21.5906H15.541" stroke="currentColor" stroke-linecap="round" stroke-linejoin="round"/>
</svg>
