<svg width="24" height="25" viewBox="0 0 24 25" fill="none" xmlns="http://www.w3.org/2000/svg">
<path d="M7.34086 7.30174H8.31885C8.60924 6.17705 9.20928 5.15637 10.0508 4.35566C10.8923 3.55496 11.9415 3.00635 13.0793 2.77216C14.217 2.53798 15.3976 2.62761 16.4869 3.03087C17.5762 3.43414 18.5306 4.13487 19.2416 5.05344C19.9525 5.97201 20.3916 7.07158 20.5089 8.22722C20.6261 9.38286 20.4169 10.5482 19.9049 11.5909C19.393 12.6336 18.5988 13.5117 17.6127 14.1256C16.6266 14.7395 15.4881 15.0644 14.3265 15.0635H7.34086C6.31158 15.0635 5.32446 14.6547 4.59665 13.9269C3.86884 13.199 3.45996 12.2119 3.45996 11.1826C3.45996 10.1534 3.86884 9.16624 4.59665 8.43843C5.32446 7.71062 6.31158 7.30174 7.34086 7.30174Z" stroke="currentColor" stroke-linecap="round" stroke-linejoin="round"/>
<path d="M9.20947 21.5906C9.20947 21.2437 9.49072 20.9625 9.83765 20.9625C10.1846 20.9625 10.4658 21.2437 10.4658 21.5906M9.20947 21.5906C9.20947 21.9376 9.49072 22.2188 9.83765 22.2188C10.1846 22.2188 10.4658 21.9376 10.4658 21.5906M9.20947 21.5906L10.4658 21.5906M13.7739 21.5906C13.7739 21.2437 14.0552 20.9625 14.4021 20.9625C14.749 20.9625 15.0303 21.2437 15.0303 21.5906C15.0303 21.6278 15.027 21.6643 15.0208 21.6997M13.7739 21.5906C13.7739 21.9376 14.0552 22.2188 14.4021 22.2188C14.7118 22.2188 14.9692 21.9946 15.0208 21.6997M13.7739 21.5906L15.0208 21.6997M6.92725 17.907C6.92725 17.5601 7.20849 17.2789 7.55542 17.2789C7.90235 17.2789 8.18359 17.5601 8.18359 17.907M6.92725 17.907C6.92725 18.254 7.20849 18.5352 7.55542 18.5352C7.90235 18.5352 8.18359 18.254 8.18359 17.907M6.92725 17.907L8.18359 17.907M11.4917 17.907C11.4917 17.5601 11.7729 17.2789 12.1199 17.2789C12.4668 17.2789 12.748 17.5601 12.748 17.907C12.748 17.9563 12.7424 18.0041 12.7317 18.0501M11.4917 17.907C11.4917 18.254 11.7729 18.5352 12.1199 18.5352C12.4176 18.5352 12.6669 18.3281 12.7317 18.0501M11.4917 17.907L12.7317 18.0501M17.3125 17.907C17.3125 17.5601 17.0313 17.2789 16.6843 17.2789C16.3374 17.2789 16.0562 17.5601 16.0562 17.907C16.0562 17.9563 16.0618 18.0041 16.0725 18.0501M17.3125 17.907C17.3125 18.254 17.0313 18.5352 16.6843 18.5352C16.3866 18.5352 16.1373 18.3281 16.0725 18.0501M17.3125 17.907L16.0725 18.0501" stroke="currentColor" stroke-linecap="round" stroke-linejoin="round"/>
</svg>
