<svg width="24" height="25" viewBox="0 0 24 25" fill="none" xmlns="http://www.w3.org/2000/svg">
<path d="M7.34087 6.80174H8.31886C8.60925 5.67705 9.20929 4.65637 10.0508 3.85566C10.8923 3.05496 11.9415 2.50635 13.0793 2.27216C14.217 2.03798 15.3976 2.12761 16.4869 2.53087C17.5762 2.93414 18.5306 3.63487 19.2416 4.55344C19.9525 5.47201 20.3916 6.57158 20.5089 7.72722C20.6261 8.88286 20.4169 10.0482 19.905 11.0909C19.393 12.1336 18.5988 13.0117 17.6127 13.6256C16.6266 14.2395 15.4881 14.5644 14.3265 14.5635H7.34087C6.31159 14.5635 5.32447 14.1547 4.59665 13.4269C3.86884 12.699 3.45996 11.7119 3.45996 10.6826C3.45996 9.65336 3.86884 8.66624 4.59665 7.93843C5.32447 7.21062 6.31159 6.80174 7.34087 6.80174Z" stroke="currentColor" stroke-linecap="round" stroke-linejoin="round"/>
<path d="M2.20947 17.907C2.20947 17.5601 2.49072 17.2789 2.83765 17.2789C3.18458 17.2789 3.46582 17.5601 3.46582 17.907M2.20947 17.907C2.20947 18.254 2.49072 18.5352 2.83765 18.5352C3.18458 18.5352 3.46582 18.254 3.46582 17.907M2.20947 17.907L3.46582 17.907M4.4917 21.5906C4.4917 21.2437 4.77294 20.9625 5.11987 20.9625C5.4668 20.9625 5.74805 21.2437 5.74805 21.5906M4.4917 21.5906C4.4917 21.9376 4.77294 22.2188 5.11987 22.2188C5.4668 22.2188 5.74805 21.9376 5.74805 21.5906M4.4917 21.5906L5.74805 21.5906M9.05615 21.5906C9.05615 21.2437 9.3374 20.9625 9.68433 20.9625C10.0313 20.9625 10.3125 21.2437 10.3125 21.5906M9.05615 21.5906C9.05615 21.9376 9.3374 22.2188 9.68433 22.2188C10.0313 22.2188 10.3125 21.9376 10.3125 21.5906M9.05615 21.5906L10.3125 21.5906M13.6206 21.5906C13.6206 21.2437 13.9018 20.9625 14.2488 20.9625C14.5957 20.9625 14.877 21.2437 14.877 21.5906M13.6206 21.5906C13.6206 21.9376 13.9018 22.2188 14.2488 22.2188C14.5957 22.2188 14.877 21.9376 14.877 21.5906M13.6206 21.5906L14.877 21.5906M18.1851 21.5906C18.1851 21.2437 18.4663 20.9625 18.8132 20.9625C19.1602 20.9625 19.4414 21.2437 19.4414 21.5906C19.4414 21.6278 19.4382 21.6643 19.432 21.6997M18.1851 21.5906C18.1851 21.9376 18.4663 22.2188 18.8132 22.2188C19.123 22.2188 19.3804 21.9946 19.432 21.6997M18.1851 21.5906L19.432 21.6997M6.77393 17.907C6.77393 17.5601 7.05517 17.2789 7.4021 17.2789C7.74903 17.2789 8.03027 17.5601 8.03027 17.907M6.77393 17.907C6.77393 18.254 7.05517 18.5352 7.4021 18.5352C7.74903 18.5352 8.03027 18.254 8.03027 17.907M6.77393 17.907L8.03027 17.907M11.3384 17.907C11.3384 17.5601 11.6196 17.2789 11.9666 17.2789C12.3135 17.2789 12.5947 17.5601 12.5947 17.907M11.3384 17.907C11.3384 18.254 11.6196 18.5352 11.9666 18.5352C12.3135 18.5352 12.5947 18.254 12.5947 17.907M11.3384 17.907L12.5947 17.907M15.9028 17.907C15.9028 17.5601 16.1841 17.2789 16.531 17.2789C16.8779 17.2789 17.1592 17.5601 17.1592 17.907C17.1592 17.9563 17.1535 18.0041 17.1428 18.0501M15.9028 17.907C15.9028 18.254 16.1841 18.5352 16.531 18.5352C16.8287 18.5352 17.0781 18.3281 17.1428 18.0501M15.9028 17.907L17.1428 18.0501M21.7236 17.907C21.7236 17.5601 21.4424 17.2789 21.0955 17.2789C20.7485 17.2789 20.4673 17.5601 20.4673 17.907C20.4673 17.9563 20.4729 18.0041 20.4836 18.0501M21.7236 17.907C21.7236 18.254 21.4424 18.5352 21.0955 18.5352C20.7977 18.5352 20.5484 18.3281 20.4836 18.0501M21.7236 17.907L20.4836 18.0501" stroke="currentColor" stroke-linecap="round" stroke-linejoin="round"/>
</svg>
