<svg width="24" height="25" viewBox="0 0 24 25" fill="none" xmlns="http://www.w3.org/2000/svg">
<path d="M5.18214 18.8432L5.35024 17.9559M9.38214 18.8432L9.55024 17.9559M13.5822 18.8432L13.7503 17.9559M17.7822 18.8432L17.9503 17.9559M7.28214 22.4432L7.45024 21.5559M11.4822 22.4432L11.6503 21.5559M15.6822 22.4432L15.8503 21.5559M7.34086 6.61296H8.31885C8.60924 5.48827 9.20928 4.46758 10.0508 3.66688C10.8923 2.86618 11.9415 2.31757 13.0793 2.08338C14.217 1.84919 15.3976 1.93883 16.4869 2.34209C17.5762 2.74536 18.5306 3.44609 19.2416 4.36466C19.9525 5.28323 20.3916 6.3828 20.5089 7.53844C20.6261 8.69408 20.4169 9.85944 19.9049 10.9021C19.393 11.9448 18.5988 12.8229 17.6127 13.4368C16.6266 14.0507 15.4881 14.3756 14.3265 14.3748H7.34086C6.31158 14.3748 5.32446 13.9659 4.59665 13.2381C3.86884 12.5103 3.45996 11.5231 3.45996 10.4939C3.45996 9.46458 3.86884 8.47746 4.59665 7.74965C5.32446 7.02184 6.31158 6.61296 7.34086 6.61296Z" stroke="currentColor" stroke-linecap="round" stroke-linejoin="round"/>
</svg>
