<svg width="24" height="25" viewBox="0 0 24 25" fill="none" xmlns="http://www.w3.org/2000/svg">
<path d="M5.34808 18.815L5.51619 17.9277M8.54808 18.815L8.71619 17.9277M11.7481 18.815L11.9162 17.9277M14.9481 18.815L15.1162 17.9277M18.3162 18.8713L18.4844 17.984M6.94808 22.415L7.11619 21.5277M10.1481 22.415L10.3162 21.5277M13.3481 22.415L13.5162 21.5277M16.7162 22.4713L16.8844 21.584M7.34086 6.58476H8.31885C8.60924 5.46007 9.20928 4.43939 10.0508 3.63868C10.8923 2.83798 11.9415 2.28937 13.0793 2.05518C14.217 1.821 15.3976 1.91063 16.4869 2.31389C17.5762 2.71716 18.5306 3.41789 19.2416 4.33646C19.9525 5.25503 20.3916 6.3546 20.5089 7.51024C20.6261 8.66588 20.4169 9.83124 19.9049 10.8739C19.393 11.9166 18.5988 12.7947 17.6127 13.4086C16.6266 14.0225 15.4881 14.3474 14.3265 14.3466H7.34086C6.31158 14.3466 5.32446 13.9377 4.59665 13.2099C3.86884 12.4821 3.45996 11.4949 3.45996 10.4657C3.45996 9.43638 3.86884 8.44926 4.59665 7.72145C5.32446 6.99364 6.31158 6.58476 7.34086 6.58476Z" stroke="currentColor" stroke-linecap="round" stroke-linejoin="round"/>
</svg>
