<svg width="24" height="25" viewBox="0 0 24 25" fill="none" xmlns="http://www.w3.org/2000/svg">
<path d="M5.34808 19.102L5.51619 18.2147M8.54808 19.102L8.71619 18.2147M11.7481 19.102L11.9162 18.2147M14.9481 19.102L15.1162 18.2147M18.3162 19.1584L18.4844 18.2711M6.94808 22.702L7.11619 21.8147M10.1481 22.702L10.3162 21.8147M13.3481 22.702L13.5162 21.8147M16.7162 22.7584L16.8844 21.8711M7.34086 6.87181H8.31885C8.60924 5.74712 9.20928 4.72643 10.0508 3.92573C10.8923 3.12503 11.9415 2.57642 13.0793 2.34223C14.217 2.10804 15.3976 2.19768 16.4869 2.60094C17.5762 3.00421 18.5306 3.70494 19.2416 4.62351C19.9525 5.54208 20.3916 6.64165 20.5089 7.79729C20.6261 8.95293 20.4169 10.1183 19.9049 11.161C19.393 12.2036 18.5988 13.0818 17.6127 13.6956C16.6266 14.3095 15.4881 14.6345 14.3265 14.6336H7.34086C6.31158 14.6336 5.32446 14.2247 4.59665 13.4969C3.86884 12.7691 3.45996 11.782 3.45996 10.7527C3.45996 9.72343 3.86884 8.73631 4.59665 8.0085C5.32446 7.28069 6.31158 6.87181 7.34086 6.87181Z" stroke="currentColor" stroke-linecap="round" stroke-linejoin="round"/>
</svg>
