<svg width="24" height="25" viewBox="0 0 24 25" fill="none" xmlns="http://www.w3.org/2000/svg">
<path d="M7.34086 6.80174H8.31885C8.60924 5.67705 9.20928 4.65637 10.0508 3.85566C10.8923 3.05496 11.9415 2.50635 13.0793 2.27216C14.217 2.03798 15.3976 2.12761 16.4869 2.53087C17.5762 2.93414 18.5306 3.63487 19.2416 4.55344C19.9525 5.47201 20.3916 6.57158 20.5089 7.72722C20.6261 8.88286 20.4169 10.0482 19.9049 11.0909C19.393 12.1336 18.5988 13.0117 17.6127 13.6256C16.6266 14.2395 15.4881 14.5644 14.3265 14.5635H7.34086C6.31158 14.5635 5.32446 14.1547 4.59665 13.4269C3.86884 12.699 3.45996 11.7119 3.45996 10.6826C3.45996 9.65336 3.86884 8.66624 4.59665 7.93843C5.32446 7.21062 6.31158 6.80174 7.34086 6.80174Z" stroke="currentColor" stroke-linecap="round" stroke-linejoin="round"/>
<path d="M9.08936 22.0856C9.08936 21.7387 9.3706 21.4574 9.71753 21.4574C10.0645 21.4574 10.3457 21.7387 10.3457 22.0856M9.08936 22.0856C9.08936 22.4325 9.3706 22.7138 9.71753 22.7138C10.0645 22.7138 10.3457 22.4325 10.3457 22.0856M9.08936 22.0856L10.3457 22.0856M13.6538 22.0856C13.6538 21.7387 13.9351 21.4574 14.282 21.4574C14.6289 21.4574 14.9102 21.7387 14.9102 22.0856C14.9102 22.1228 14.9069 22.1592 14.9007 22.1946M13.6538 22.0856C13.6538 22.4325 13.9351 22.7138 14.282 22.7138C14.5917 22.7138 14.8491 22.4896 14.9007 22.1946M13.6538 22.0856L14.9007 22.1946M6.80713 18.402C6.80713 18.0551 7.08837 17.7738 7.4353 17.7738C7.78223 17.7738 8.06348 18.0551 8.06348 18.402M6.80713 18.402C6.80713 18.7489 7.08837 19.0302 7.4353 19.0302C7.78223 19.0302 8.06348 18.7489 8.06348 18.402M6.80713 18.402L8.06348 18.402M11.3716 18.402C11.3716 18.0551 11.6528 17.7738 11.9998 17.7738C12.3467 17.7738 12.6279 18.0551 12.6279 18.402C12.6279 18.4512 12.6223 18.4991 12.6116 18.5451M11.3716 18.402C11.3716 18.7489 11.6528 19.0302 11.9998 19.0302C12.2975 19.0302 12.5468 18.8231 12.6116 18.5451M11.3716 18.402L12.6116 18.5451M17.1924 18.402C17.1924 18.0551 16.9111 17.7738 16.5642 17.7738C16.2173 17.7738 15.936 18.0551 15.936 18.402C15.936 18.4512 15.9417 18.4991 15.9524 18.5451M17.1924 18.402C17.1924 18.7489 16.9111 19.0302 16.5642 19.0302C16.2665 19.0302 16.0171 18.8231 15.9524 18.5451M17.1924 18.402L15.9524 18.5451" stroke="currentColor" stroke-linecap="round" stroke-linejoin="round"/>
</svg>
