<svg width="24" height="25" viewBox="0 0 24 25" fill="none" xmlns="http://www.w3.org/2000/svg">
<path d="M7.28214 19.1302L7.45024 18.2429M11.4822 19.1302L11.6503 18.2429M15.6822 19.1302L15.8503 18.2429M9.38214 22.7302L9.55024 21.8429M13.5822 22.7302L13.7503 21.8429M7.34086 6.9H8.31885C8.60924 5.77532 9.20928 4.75463 10.0508 3.95393C10.8923 3.15323 11.9415 2.60461 13.0793 2.37043C14.217 2.13624 15.3976 2.22588 16.4869 2.62914C17.5762 3.03241 18.5306 3.73314 19.2416 4.65171C19.9525 5.57027 20.3916 6.66985 20.5089 7.82549C20.6261 8.98113 20.4169 10.1465 19.9049 11.1892C19.393 12.2318 18.5988 13.11 17.6127 13.7238C16.6266 14.3377 15.4881 14.6627 14.3265 14.6618H7.34086C6.31158 14.6618 5.32446 14.2529 4.59665 13.5251C3.86884 12.7973 3.45996 11.8102 3.45996 10.7809C3.45996 9.75163 3.86884 8.76451 4.59665 8.0367C5.32446 7.30889 6.31158 6.9 7.34086 6.9Z" stroke="currentColor" stroke-linecap="round" stroke-linejoin="round"/>
</svg>
