<svg width="24" height="25" viewBox="0 0 24 25" fill="none" xmlns="http://www.w3.org/2000/svg">
<path d="M9.53494 17.5617L8.53494 19.8204L10.535 20.3376L9.53494 22.5962M14.7788 17.5617L13.7788 19.8204L15.7788 20.3376L14.7788 22.5962M7.34086 7.03404H8.31885C8.60924 5.90935 9.20928 4.88867 10.0508 4.08796C10.8923 3.28726 11.9415 2.73865 13.0793 2.50446C14.217 2.27028 15.3976 2.35991 16.4869 2.76317C17.5762 3.16644 18.5306 3.86717 19.2416 4.78574C19.9525 5.70431 20.3916 6.80388 20.5089 7.95952C20.6261 9.11516 20.4169 10.2805 19.9049 11.3232C19.393 12.3659 18.5988 13.244 17.6127 13.8579C16.6266 14.4718 15.4881 14.7967 14.3265 14.7958H7.34086C6.31158 14.7958 5.32446 14.387 4.59665 13.6592C3.86884 12.9313 3.45996 11.9442 3.45996 10.9149C3.45996 9.88566 3.86884 8.89854 4.59665 8.17073C5.32446 7.44292 6.31158 7.03404 7.34086 7.03404Z" stroke="currentColor" stroke-linecap="round" stroke-linejoin="round"/>
</svg>
