<svg width="24" height="25" viewBox="0 0 24 25" fill="none" xmlns="http://www.w3.org/2000/svg">
<path d="M5.99127 17.5069V18.5069M18.0093 17.5069V18.5069M7.99127 21.5414V22.5414M11.9973 17.5069L10.9973 19.7655L12.9973 20.2828L11.9973 22.5414M16.0033 21.5414V22.5414M7.34086 6.97923H8.31885C8.60924 5.85454 9.20928 4.83386 10.0508 4.03315C10.8923 3.23245 11.9415 2.68384 13.0793 2.44965C14.217 2.21547 15.3976 2.3051 16.4869 2.70836C17.5762 3.11163 18.5306 3.81236 19.2416 4.73093C19.9525 5.6495 20.3916 6.74907 20.5089 7.90471C20.6261 9.06035 20.4169 10.2257 19.9049 11.2684C19.393 12.311 18.5988 13.1892 17.6127 13.8031C16.6266 14.4169 15.4881 14.7419 14.3265 14.741H7.34086C6.31158 14.741 5.32446 14.3322 4.59665 13.6043C3.86884 12.8765 3.45996 11.8894 3.45996 10.8601C3.45996 9.83085 3.86884 8.84373 4.59665 8.11592C5.32446 7.38811 6.31158 6.97923 7.34086 6.97923Z" stroke="currentColor" stroke-linecap="round" stroke-linejoin="round"/>
</svg>
