<svg width="24" height="24" viewBox="0 0 24 24" fill="none" xmlns="http://www.w3.org/2000/svg">
<path d="M6.6889 21.412V13.3044M6.6889 13.3044C4.42397 13.3044 2.58789 11.5052 2.58789 9.28579C2.58789 7.06634 4.42397 5.2671 6.6889 5.2671M6.6889 13.3044C8.95382 13.3044 10.7899 11.5052 10.7899 9.28579C10.7899 7.06634 8.95382 5.2671 6.6889 5.2671M6.6889 2.58799V5.2671M17.3109 2.58799V10.0898M17.3109 10.0898C15.046 10.0898 13.2099 11.889 13.2099 14.1084C13.2099 16.3279 15.046 18.1271 17.3109 18.1271M17.3109 10.0898C19.5758 10.0898 21.4119 11.889 21.4119 14.1084C21.4119 16.3279 19.5758 18.1271 17.3109 18.1271M17.3109 21.412V18.1271" stroke="currentColor" stroke-linecap="round" stroke-linejoin="round"/>
</svg>
