<svg width="24" height="24" viewBox="0 0 24 24" fill="none" xmlns="http://www.w3.org/2000/svg">
<path d="M11.1316 7.34997C10.0929 5.39777 8.05173 3.559 6.89743 2C5.48465 3.95116 2.58166 6.37194 2.08977 8.89135C1.51223 11.8495 3.79202 14.8588 6.89743 14.8588C7.33157 14.8588 7.74958 14.8 8.14589 14.6907M11.1316 7.34997C11.4015 7.85708 11.6037 8.37185 11.7051 8.89135C12.2019 11.4359 10.5844 14.0184 8.14589 14.6907M11.1316 7.34997C12.5032 5.69163 14.0414 4.13456 15.0474 2.74521C17.1118 5.53334 21.1743 8.95177 21.8726 12.5284C22.6925 16.7279 19.456 21 15.0474 21C11.4011 21 8.55658 18.0775 8.14589 14.6907" stroke="currentColor" stroke-linecap="round" stroke-linejoin="round"/>
</svg>
