<svg width="24" height="24" viewBox="0 0 24 24" fill="none" xmlns="http://www.w3.org/2000/svg">
<path d="M15.253 20.0253C16.6167 19.0569 17.5054 17.4726 17.5054 15.6827C17.5054 12.7343 15.0946 10.3442 12.1206 10.3442C9.14665 10.3442 6.7358 12.7343 6.7358 15.6827C6.7358 17.4854 7.63712 19.0588 9.01739 20.0253L12.1206 16.7231L15.253 20.0253ZM15.253 20.0253H23.3669M12.1206 7.65288V2.97473M8.07947 8.72866L6.83131 6.58085M16.1617 8.72866L17.4099 6.58085M20.2029 15.6827H22.6969M4.03833 15.6827H1.54431M19.1201 11.6677L23.1933 9.33138M5.12114 11.6677L1.04796 9.33138M0.632812 20.0253H8.74674" stroke="currentColor" stroke-linecap="round" stroke-linejoin="round"/>
</svg>
